#tb 0: 1/25
#media_type 0: video
#codec_id 0: rawvideo
#dimensions 0: 352x288
#sar 0: 0/1
0,          0,          0,        1,   152064, 0xb291a678
0,          1,          1,        1,   152064, 0x913c5a5d
0,          2,          2,        1,   152064, 0x9558a372
0,          3,          3,        1,   152064, 0x5e521e9b
0,          4,          4,        1,   152064, 0xbc2c7bd7
0,          5,          5,        1,   152064, 0x8867cc80
0,          6,          6,        1,   152064, 0xae394b0b
0,          7,          7,        1,   152064, 0x15d9c120
0,          8,          8,        1,   152064, 0xffe01d0f
0,          9,          9,        1,   152064, 0xf90a1d50
0,         10,         10,        1,   152064, 0x7b9b6a02
0,         11,         11,        1,   152064, 0x687f5afa
0,         12,         12,        1,   152064, 0x6bf7b8a2
0,         13,         13,        1,   152064, 0x45cb58e9
0,         14,         14,        1,   152064, 0xc4246ef0
0,         15,         15,        1,   152064, 0xa19dbe0a
0,         16,         16,        1,   152064, 0xe297eaa9
0,         17,         17,        1,   152064, 0x8f4300bc
0,         18,         18,        1,   152064, 0x9a541a18
0,         19,         19,        1,   152064, 0xf3b51480
0,         20,         20,        1,   152064, 0x5a191303
0,         21,         21,        1,   152064, 0x2e887f27
0,         22,         22,        1,   152064, 0xf050d46d
0,         23,         23,        1,   152064, 0xc31c6716
0,         24,         24,        1,   152064, 0x37761725
0,         25,         25,        1,   152064, 0x81141cf6
0,         26,         26,        1,   152064, 0x181f7e61
0,         27,         27,        1,   152064, 0x9fc2b668
0,         28,         28,        1,   152064, 0x3716f5da
0,         29,         29,        1,   152064, 0x3b28f0c9
0,         30,         30,        1,   152064, 0xe33bd972
0,         31,         31,        1,   152064, 0x948ccdaa
0,         32,         32,        1,   152064, 0x21fdc6c2
0,         33,         33,        1,   152064, 0x3874b6fc
0,         34,         34,        1,   152064, 0x07b7a748
0,         35,         35,        1,   152064, 0x7aee8b8d
0,         36,         36,        1,   152064, 0x013d7552
0,         37,         37,        1,   152064, 0x9631487e
0,         38,         38,        1,   152064, 0xd9a109d6
0,         39,         39,        1,   152064, 0x7b450b1b
0,         40,         40,        1,   152064, 0x25f0cb06
0,         41,         41,        1,   152064, 0x6542aa9c
0,         42,         42,        1,   152064, 0x40ba9bd7
0,         43,         43,        1,   152064, 0x2dc7d564
0,         44,         44,        1,   152064, 0x4534a83f
0,         45,         45,        1,   152064, 0x671551a3
0,         46,         46,        1,   152064, 0xc69a9a28
0,         47,         47,        1,   152064, 0x899be59a
0,         48,         48,        1,   152064, 0x1adb6455
0,         49,         49,        1,   152064, 0x5d34066b
0,         50,         50,        1,   152064, 0x17f4dcec
0,         51,         51,        1,   152064, 0xcc9fd4b1
0,         52,         52,        1,   152064, 0x329aaeb5
0,         53,         53,        1,   152064, 0x4532a3f0
0,         54,         54,        1,   152064, 0xb0440be3
0,         55,         55,        1,   152064, 0x9055a9e2
0,         56,         56,        1,   152064, 0x1f5b4730
0,         57,         57,        1,   152064, 0x55fc2ba8
0,         58,         58,        1,   152064, 0x6adc911a
0,         59,         59,        1,   152064, 0x4968851f
0,         60,         60,        1,   152064, 0x31a86628
0,         61,         61,        1,   152064, 0x7223240a
0,         62,         62,        1,   152064, 0xb982e88e
0,         63,         63,        1,   152064, 0xba45b5ea
0,         64,         64,        1,   152064, 0x72f55121
0,         65,         65,        1,   152064, 0x36c59af9
0,         66,         66,        1,   152064, 0x6fc51449
0,         67,         67,        1,   152064, 0xbd9d99b7
0,         68,         68,        1,   152064, 0x0bd3a6e7
0,         69,         69,        1,   152064, 0x5a5d0203
0,         70,         70,        1,   152064, 0x44a26951
0,         71,         71,        1,   152064, 0xfe9fcff5
0,         72,         72,        1,   152064, 0xce25a939
0,         73,         73,        1,   152064, 0xdf7c1b79
0,         74,         74,        1,   152064, 0xe82a1c4c
0,         75,         75,        1,   152064, 0x946b20d7
0,         76,         76,        1,   152064, 0x5d4887d2
0,         77,         77,        1,   152064, 0xadfe1034
0,         78,         78,        1,   152064, 0x6d20b119
0,         79,         79,        1,   152064, 0x8e414e12
0,         80,         80,        1,   152064, 0x06effdf9
0,         81,         81,        1,   152064, 0x3073e4f5
0,         82,         82,        1,   152064, 0xa0ef2291
0,         83,         83,        1,   152064, 0x3feb2cf6
0,         84,         84,        1,   152064, 0x3e77b0c8
0,         85,         85,        1,   152064, 0xdbce3b7a
0,         86,         86,        1,   152064, 0x15e0b088
0,         87,         87,        1,   152064, 0xb05bb465
0,         88,         88,        1,   152064, 0x63423915
0,         89,         89,        1,   152064, 0x290210f4
0,         90,         90,        1,   152064, 0x4d14cc43
0,         91,         91,        1,   152064, 0x4a5509fe
0,         92,         92,        1,   152064, 0x110c6420
0,         93,         93,        1,   152064, 0xbe614dfb
0,         94,         94,        1,   152064, 0xa6311469
0,         95,         95,        1,   152064, 0x198b6b73
0,         96,         96,        1,   152064, 0xe96fe872
0,         97,         97,        1,   152064, 0x7a7a6937
0,         98,         98,        1,   152064, 0xfe2b868d
0,         99,         99,        1,   152064, 0x9e0bbb2b
0,        100,        100,        1,   152064, 0x53dbdf39
0,        101,        101,        1,   152064, 0xee90ba8e
0,        102,        102,        1,   152064, 0x38bcb94d
0,        103,        103,        1,   152064, 0x16a6d9bb
0,        104,        104,        1,   152064, 0x450ae454
0,        105,        105,        1,   152064, 0x7d98fcf4
0,        106,        106,        1,   152064, 0xc54ed4cf
0,        107,        107,        1,   152064, 0x560d74ac
0,        108,        108,        1,   152064, 0xb203fc98
0,        109,        109,        1,   152064, 0xb085b576
0,        110,        110,        1,   152064, 0x05e16f79
0,        111,        111,        1,   152064, 0x90cd4c73
0,        112,        112,        1,   152064, 0x4dd42a7f
0,        113,        113,        1,   152064, 0x26b9e35c
0,        114,        114,        1,   152064, 0x70cbb417
0,        115,        115,        1,   152064, 0x0a1bc4a9
0,        116,        116,        1,   152064, 0xe08fdbc9
0,        117,        117,        1,   152064, 0x8768cd49
0,        118,        118,        1,   152064, 0x80a4b575
0,        119,        119,        1,   152064, 0x68478ea6
0,        120,        120,        1,   152064, 0x8f8c589d
0,        121,        121,        1,   152064, 0x8ee4345c
0,        122,        122,        1,   152064, 0x93911901
0,        123,        123,        1,   152064, 0x38fb4298
0,        124,        124,        1,   152064, 0x8bee60e7
0,        125,        125,        1,   152064, 0x3f906dbd
0,        126,        126,        1,   152064, 0x9de2a984
0,        127,        127,        1,   152064, 0x64c804e0
0,        128,        128,        1,   152064, 0x4757c864
0,        129,        129,        1,   152064, 0xe6f43905
0,        130,        130,        1,   152064, 0x8ad2e577
0,        131,        131,        1,   152064, 0x1b06977e
0,        132,        132,        1,   152064, 0xe92a2dfa
0,        133,        133,        1,   152064, 0x97b993fa
0,        134,        134,        1,   152064, 0x1602de2d
0,        135,        135,        1,   152064, 0x6dda24f1
0,        136,        136,        1,   152064, 0x5552ec9d
0,        137,        137,        1,   152064, 0xcce058e8
0,        138,        138,        1,   152064, 0x4359bccd
0,        139,        139,        1,   152064, 0xe41d77d0
0,        140,        140,        1,   152064, 0x05730d21
0,        141,        141,        1,   152064, 0xa963bf92
0,        142,        142,        1,   152064, 0x3f4d8e29
0,        143,        143,        1,   152064, 0x385d2403
0,        144,        144,        1,   152064, 0xd8e279d6
0,        145,        145,        1,   152064, 0xcfcb3713
0,        146,        146,        1,   152064, 0xd68d57d4
0,        147,        147,        1,   152064, 0xdaecd2d6
0,        148,        148,        1,   152064, 0x7c1805cf
0,        149,        149,        1,   152064, 0x19969137
0,        150,        150,        1,   152064, 0x15007e0c
0,        151,        151,        1,   152064, 0xf4f5011a
0,        152,        152,        1,   152064, 0x792793e3
0,        153,        153,        1,   152064, 0x1c4126f9
0,        154,        154,        1,   152064, 0xfaeb9465
0,        155,        155,        1,   152064, 0x3366c5c6
0,        156,        156,        1,   152064, 0x8efa29ed
0,        157,        157,        1,   152064, 0x2b36d937
0,        158,        158,        1,   152064, 0x4cfc993f
0,        159,        159,        1,   152064, 0x0809f8f8
0,        160,        160,        1,   152064, 0x5be26710
0,        161,        161,        1,   152064, 0x6d757860
0,        162,        162,        1,   152064, 0xf4e8706d
0,        163,        163,        1,   152064, 0xec42387d
0,        164,        164,        1,   152064, 0x828f02e1
0,        165,        165,        1,   152064, 0x45a0954c
0,        166,        166,        1,   152064, 0xbcca1065
0,        167,        167,        1,   152064, 0xd5946707
0,        168,        168,        1,   152064, 0x6887cbcb
0,        169,        169,        1,   152064, 0x63fc7423
0,        170,        170,        1,   152064, 0x3339ebc2
0,        171,        171,        1,   152064, 0x6419e277
0,        172,        172,        1,   152064, 0xe9cd70aa
0,        173,        173,        1,   152064, 0x23903b35
0,        174,        174,        1,   152064, 0xd83d028a
0,        175,        175,        1,   152064, 0x79e21536
0,        176,        176,        1,   152064, 0x81cc6027
0,        177,        177,        1,   152064, 0x56334e89
0,        178,        178,        1,   152064, 0xe32e532e
0,        179,        179,        1,   152064, 0x528832b4
0,        180,        180,        1,   152064, 0x348da007
0,        181,        181,        1,   152064, 0x5104b2e8
0,        182,        182,        1,   152064, 0x7b0d1f8f
0,        183,        183,        1,   152064, 0x6750c77c
0,        184,        184,        1,   152064, 0x3a8f2faa
0,        185,        185,        1,   152064, 0x8a24a116
0,        186,        186,        1,   152064, 0x82d00d82
0,        187,        187,        1,   152064, 0xc6f5b11a
0,        188,        188,        1,   152064, 0x2b352039
0,        189,        189,        1,   152064, 0x7c067e22
0,        190,        190,        1,   152064, 0xc975d80d
0,        191,        191,        1,   152064, 0xa49978ed
0,        192,        192,        1,   152064, 0x441f703e
0,        193,        193,        1,   152064, 0x5cb150c5
0,        194,        194,        1,   152064, 0xeeda6c8e
0,        195,        195,        1,   152064, 0xe9e0ce47
0,        196,        196,        1,   152064, 0xba55acbd
0,        197,        197,        1,   152064, 0xae8250e5
0,        198,        198,        1,   152064, 0xf438f2e8
0,        199,        199,        1,   152064, 0xe6263d10
0,        200,        200,        1,   152064, 0x8d13277a
0,        201,        201,        1,   152064, 0x4bfb4aab
0,        202,        202,        1,   152064, 0x1c0a78ea
0,        203,        203,        1,   152064, 0xa0651778
0,        204,        204,        1,   152064, 0xa309ca66
0,        205,        205,        1,   152064, 0x294c750b
0,        206,        206,        1,   152064, 0xd55d6881
0,        207,        207,        1,   152064, 0x8d002b72
0,        208,        208,        1,   152064, 0xe0ae5976
0,        209,        209,        1,   152064, 0xc6f28961
0,        210,        210,        1,   152064, 0x6fb5899d
0,        211,        211,        1,   152064, 0x046f3445
0,        212,        212,        1,   152064, 0x9b2d5779
0,        213,        213,        1,   152064, 0xeb9db946
0,        214,        214,        1,   152064, 0x190bdc3b
0,        215,        215,        1,   152064, 0xb9ae5c7b
0,        216,        216,        1,   152064, 0xca07ad32
0,        217,        217,        1,   152064, 0x8d1fee22
0,        218,        218,        1,   152064, 0x446470dd
0,        219,        219,        1,   152064, 0x8802cf93
0,        220,        220,        1,   152064, 0x8bbaeb30
0,        221,        221,        1,   152064, 0xfe4e7fdf
0,        222,        222,        1,   152064, 0xc6379dc7
0,        223,        223,        1,   152064, 0xaa53198b
0,        224,        224,        1,   152064, 0x88d6d37c
0,        225,        225,        1,   152064, 0xd1b89370
0,        226,        226,        1,   152064, 0xdab349f4
0,        227,        227,        1,   152064, 0x4702c238
0,        228,        228,        1,   152064, 0xfaa893bb
0,        229,        229,        1,   152064, 0x515b940e
0,        230,        230,        1,   152064, 0x4d86d838
0,        231,        231,        1,   152064, 0xe3815641
0,        232,        232,        1,   152064, 0x0e501c17
0,        233,        233,        1,   152064, 0x449df073
0,        234,        234,        1,   152064, 0xc06daa27
0,        235,        235,        1,   152064, 0x72f5394c
0,        236,        236,        1,   152064, 0x18be9f70
0,        237,        237,        1,   152064, 0xc508213a
0,        238,        238,        1,   152064, 0xa616a322
0,        239,        239,        1,   152064, 0x1a5d09e5
0,        240,        240,        1,   152064, 0xf6e78051
0,        241,        241,        1,   152064, 0x8945ad83
0,        242,        242,        1,   152064, 0xa06fd95d
0,        243,        243,        1,   152064, 0x7d86f015
0,        244,        244,        1,   152064, 0x768af87c
0,        245,        245,        1,   152064, 0xffa2e8d9
0,        246,        246,        1,   152064, 0x2ac0d2df
0,        247,        247,        1,   152064, 0x40c27662
0,        248,        248,        1,   152064, 0xfcc7580a
0,        249,        249,        1,   152064, 0xcdbd51f0
0,        250,        250,        1,   152064, 0xe0d754ec
0,        251,        251,        1,   152064, 0xbfb59395
0,        252,        252,        1,   152064, 0x26f6db71
0,        253,        253,        1,   152064, 0x1d85f144
0,        254,        254,        1,   152064, 0xfacbfbd9
0,        255,        255,        1,   152064, 0x55bdf6b8
0,        256,        256,        1,   152064, 0x9c89e3f8
0,        257,        257,        1,   152064, 0x6e90c4bd
0,        258,        258,        1,   152064, 0x3b19a944
0,        259,        259,        1,   152064, 0xcb527670
0,        260,        260,        1,   152064, 0xc0ec5c7b
0,        261,        261,        1,   152064, 0x7f5f4814
0,        262,        262,        1,   152064, 0xb0983900
0,        263,        263,        1,   152064, 0xc57534a6
0,        264,        264,        1,   152064, 0xd37b30b9
0,        265,        265,        1,   152064, 0x61fe2e9f
0,        266,        266,        1,   152064, 0x613d2e8a
0,        267,        267,        1,   152064, 0x9bc5224b
0,        268,        268,        1,   152064, 0x246122c2
0,        269,        269,        1,   152064, 0x28811a8f
0,        270,        270,        1,   152064, 0x609cfcbf
0,        271,        271,        1,   152064, 0x9c5aee70
0,        272,        272,        1,   152064, 0x06d7e997
0,        273,        273,        1,   152064, 0xcb3e1e4a
0,        274,        274,        1,   152064, 0x65e36256
0,        275,        275,        1,   152064, 0x571eb628
0,        276,        276,        1,   152064, 0x9e940be8
0,        277,        277,        1,   152064, 0x425a374b
0,        278,        278,        1,   152064, 0xbeed72a2
0,        279,        279,        1,   152064, 0x295bb61d
0,        280,        280,        1,   152064, 0xfe2df639
0,        281,        281,        1,   152064, 0xbd4f441a
0,        282,        282,        1,   152064, 0x61ce59bc
0,        283,        283,        1,   152064, 0xd5eb825f
0,        284,        284,        1,   152064, 0xc03cb656
0,        285,        285,        1,   152064, 0xfc10c1f6
0,        286,        286,        1,   152064, 0xb93908dc
0,        287,        287,        1,   152064, 0xbc2d3209
0,        288,        288,        1,   152064, 0xcc267ab3
0,        289,        289,        1,   152064, 0x32629fa0
0,        290,        290,        1,   152064, 0x5d5bb942
